<svg xmlns="http://www.w3.org/2000/svg" width="27" height="25" fill="none" viewBox="0 0 27 25"><path fill="#F9FAFC" fill-rule="evenodd" d="M2.69329 17.1234L3.52904 15.108C3.78327 15.2135 4.06378 15.2727 4.36364 15.2727H6.54545V17.4545H4.36364C3.77196 17.4545 3.2078 17.3368 2.69329 17.1234ZM10.9091 17.4545V15.2727H13.0909C13.3908 15.2727 13.6713 15.2135 13.9255 15.108L14.7613 17.1234C14.2467 17.3368 13.6826 17.4545 13.0909 17.4545H10.9091ZM17.4545 6.54545H15.2727V4.36364C15.2727 4.06378 15.2135 3.78327 15.108 3.52904L17.1234 2.69329C17.3368 3.2078 17.4545 3.77196 17.4545 4.36364V6.54545ZM6.54545 0H4.36364C3.77196 0 3.2078 0.117758 2.69329 0.331115L3.52904 2.34652C3.78327 2.24109 4.06378 2.18182 4.36364 2.18182H6.54545V0ZM0 10.9091H2.18182V13.0909C2.18182 13.3908 2.24109 13.6713 2.34652 13.9255L0.331115 14.7613C0.117758 14.2467 0 13.6826 0 13.0909V10.9091ZM0 6.54545H2.18182V4.36364C2.18182 4.06378 2.24109 3.78327 2.34652 3.52904L0.331115 2.69329C0.117758 3.2078 0 3.77196 0 4.36364V6.54545ZM10.9091 0V2.18182H13.0909C13.3908 2.18182 13.6713 2.24109 13.9255 2.34652L14.7613 0.331115C14.2467 0.117758 13.6826 0 13.0909 0H10.9091ZM17.4545 10.9091H15.2727V13.0909C15.2727 13.3908 15.2135 13.6713 15.108 13.9255L17.1234 14.7613C17.3368 14.2467 17.4545 13.6826 17.4545 13.0909V10.9091Z" clip-rule="evenodd"/><rect width="18.909" height="14.546" x="6.545" y="8" fill="#2E2E2E"/><path stroke="#F9FAFC" stroke-width="2" d="M10.9091 12.3637L9.65836 12.9891C8.64201 13.4973 8 14.536 8 15.6724V21.0001C8 22.6569 9.34315 24.0001 11 24.0001H22.4545C24.1114 24.0001 25.4545 22.6569 25.4545 21.0001V15.6724C25.4545 14.536 24.8125 13.4973 23.7962 12.9891L22.5455 12.3637"/><path stroke="#F9FAFC" stroke-width="2" d="M20.3637 13.091V12.4546C20.3637 10.7977 19.0205 9.45459 17.3637 9.45459H16.0909C14.4341 9.45459 13.0909 10.7977 13.0909 12.4546V13.091"/><circle cx="16.727" cy="18.182" r="2.636" stroke="#F9FAFC" stroke-width="2"/></svg>